<svg xmlns="http://www.w3.org/2000/svg" width="256" height="256" viewBox="0 0 256 256" role="img" aria-label="BIA">
  <title>BIA</title>
  <rect width="256" height="256" rx="57" fill="#30D158"/>
  <g transform="translate(80 46) scale(4)" fill="none" stroke="#0B0B0C" stroke-width="1.9" stroke-linecap="round" stroke-linejoin="round"><path d="m12.83 2.18a2 2 0 0 0-1.66 0L2.6 6.08a1 1 0 0 0 0 1.83l8.58 3.91a2 2 0 0 0 1.66 0l8.58-3.9a1 1 0 0 0 0-1.83Z"/><path d="m2 12.5 9.17 4.17a2 2 0 0 0 1.66 0L22 12.5"/><path d="m2 17.5 9.17 4.17a2 2 0 0 0 1.66 0L22 17.5"/></g>
  <text x="128" y="206" text-anchor="middle" font-family="ui-rounded, 'SF Pro Rounded', -apple-system, BlinkMacSystemFont, 'SF Pro Display', 'Segoe UI Variable Display', 'Segoe UI', 'Helvetica Neue', Helvetica, Arial, sans-serif" font-weight="700" font-size="31" letter-spacing="-0.4" fill="#0B0B0C">BIA</text>
</svg>
