<svg xmlns="http://www.w3.org/2000/svg" width="256" height="256" viewBox="0 0 256 256" role="img" aria-label="Sin red">
  <title>Sin red</title>
  <rect width="256" height="256" rx="57" fill="#0B0B0C"/>
  <g transform="translate(80 46) scale(4)" fill="none" stroke="#30D158" stroke-width="1.9" stroke-linecap="round" stroke-linejoin="round"><path d="M12 20h.01"/><path d="M8.5 16.429a5 5 0 0 1 7 0"/><path d="M5 12.859a10 10 0 0 1 5.17-2.69"/><path d="M19 12.859a10 10 0 0 0-2.007-1.523"/><path d="M2 8.82a15 15 0 0 1 4.177-2.643"/><path d="M22 8.82a15 15 0 0 0-11.288-3.764"/><path d="m2 2 20 20"/></g>
  <text x="128" y="206" text-anchor="middle" font-family="ui-rounded, 'SF Pro Rounded', -apple-system, BlinkMacSystemFont, 'SF Pro Display', 'Segoe UI Variable Display', 'Segoe UI', 'Helvetica Neue', Helvetica, Arial, sans-serif" font-weight="700" font-size="31" letter-spacing="-0.4" fill="#30D158">Sin red</text>
</svg>
